<?xml version="1.0" standalone="no"?>
<!DOCTYPE svg PUBLIC "-//W3C//DTD SVG 20010904//EN"
 "http://www.w3.org/TR/2001/REC-SVG-20010904/DTD/svg10.dtd">
<svg version="1.0" xmlns="http://www.w3.org/2000/svg"
 width="447.000000pt" height="447.000000pt" viewBox="0 0 447.000000 447.000000"
 preserveAspectRatio="xMidYMid meet">
<metadata>
Created by potrace 1.14, written by Peter Selinger 2001-2017
</metadata>
<g transform="translate(0.000000,447.000000) scale(0.100000,-0.100000)"
fill="#000000" stroke="none">
<path d="M2700 4228 c-102 -132 -190 -245 -195 -251 -6 -7 -43 -55 -83 -107
-40 -52 -82 -108 -95 -123 -12 -16 -21 -34 -19 -40 2 -7 0 -9 -4 -5 -8 9 -75
-73 -68 -84 3 -4 -2 -8 -10 -8 -15 0 -21 -13 -16 -35 1 -5 -2 -7 -6 -3 -8 9
-63 -61 -64 -80 0 -7 -4 -10 -10 -7 -5 3 -10 1 -10 -4 0 -6 -16 -28 -35 -50
-19 -21 -35 -44 -35 -50 0 -6 -4 -11 -10 -11 -5 0 -9 -4 -7 -8 1 -5 -11 -21
-28 -36 -16 -15 -23 -25 -15 -21 8 4 4 -3 -9 -14 -13 -12 -20 -21 -17 -21 4 0
-3 -11 -16 -24 -34 -35 -59 -66 -52 -66 2 0 -7 -11 -21 -25 -26 -27 -33 -59
-15 -70 6 -4 8 -11 5 -16 -4 -5 -1 -9 5 -9 7 0 10 -7 6 -15 -3 -8 -2 -15 3
-15 7 0 15 -19 21 -50 1 -3 8 -12 16 -21 8 -9 16 -26 17 -38 1 -11 5 -21 9
-21 4 0 8 -9 8 -19 0 -11 4 -21 9 -23 5 -1 11 -12 13 -23 1 -11 9 -26 16 -34
7 -7 11 -20 8 -28 -3 -8 -1 -11 4 -8 6 3 10 -3 10 -14 0 -11 5 -23 10 -26 6
-4 8 -11 5 -16 -4 -5 -2 -9 3 -9 10 0 48 -89 44 -102 -1 -5 2 -8 6 -8 7 0 35
-63 35 -80 0 -3 7 -11 14 -18 7 -7 13 -20 13 -28 0 -25 1 -29 17 -46 8 -9 12
-22 7 -29 -4 -8 -3 -10 4 -5 7 4 14 -4 18 -21 4 -15 11 -33 16 -40 5 -7 6 -18
2 -24 -4 -7 -3 -9 3 -6 9 6 85 -158 83 -177 -1 -5 2 -12 7 -15 15 -10 63 -122
57 -132 -3 -5 -1 -9 4 -9 9 0 56 -102 53 -115 -1 -3 5 -13 14 -22 9 -8 14 -22
11 -29 -3 -8 -2 -14 3 -14 8 0 52 -96 54 -117 0 -4 7 -14 14 -21 12 -12 17
-36 11 -45 -2 -2 5 -11 15 -21 9 -10 15 -22 12 -27 -4 -5 -2 -9 3 -9 9 0 22
-33 21 -54 -1 -5 4 -12 11 -16 6 -4 13 -13 14 -21 3 -15 45 -109 77 -172 10
-22 17 -43 14 -47 -3 -4 2 -10 10 -14 8 -3 15 -10 15 -16 0 -15 70 -113 92
-128 10 -7 15 -19 12 -25 -4 -7 -3 -9 1 -4 11 10 46 -23 38 -36 -3 -6 -1 -7 5
-3 7 4 12 2 12 -3 0 -6 5 -11 11 -11 6 0 25 -11 43 -25 18 -14 38 -25 45 -25
7 0 9 -5 5 -12 -4 -6 -3 -8 4 -4 11 6 84 -23 90 -36 2 -4 10 -4 17 -2 8 3 20
2 26 -2 7 -4 40 -6 73 -4 34 2 69 3 79 4 9 0 17 3 17 7 0 4 11 10 24 13 14 3
45 21 69 40 25 19 48 32 51 29 3 -4 6 -2 6 4 0 5 10 21 23 34 12 14 33 46 47
73 14 26 30 50 37 53 6 2 10 10 7 18 -3 7 1 19 8 26 7 8 13 19 13 24 0 6 11
44 24 85 14 41 24 78 23 82 -1 4 2 29 8 55 29 146 31 186 34 773 3 502 2 526
-17 570 -35 81 -119 274 -137 315 -10 22 -52 119 -95 215 -42 96 -89 203 -106
238 -16 35 -29 65 -29 67 0 4 -293 670 -341 773 -16 35 -29 67 -29 72 0 31
-35 -8 -200 -222z"/>
<path d="M3040 4400 c0 -5 13 -37 30 -72 16 -35 76 -169 134 -298 l104 -235
59 0 c40 0 69 -6 93 -21 98 -57 115 -189 35 -267 -19 -19 -35 -39 -35 -44 0
-6 18 -50 41 -99 22 -49 46 -102 54 -119 7 -16 27 -59 43 -95 16 -36 60 -134
97 -217 53 -121 72 -153 87 -153 12 0 16 4 12 12 -4 6 -3 8 3 5 10 -6 41 6
236 97 43 20 80 36 82 36 1 0 51 23 109 50 58 28 110 50 116 50 5 0 12 5 15
11 4 6 7 163 7 349 -1 323 -2 342 -22 387 -25 58 -90 127 -145 155 -30 16
-1000 417 -1132 469 -14 5 -23 5 -23 -1z"/>
<path d="M1572 2774 c9 -8 -102 -150 -114 -146 -5 1 -7 -2 -4 -6 6 -11 -62
-102 -76 -102 -5 0 -7 -4 -4 -8 3 -4 -11 -25 -29 -45 -19 -20 -38 -43 -42 -51
-4 -7 -20 -29 -35 -47 -15 -19 -35 -43 -43 -54 -9 -11 -13 -13 -9 -5 4 9 3 12
-2 7 -5 -5 -9 -12 -9 -16 0 -11 -34 -58 -70 -95 -16 -17 -29 -33 -30 -36 0 -3
-4 -4 -8 -2 -5 1 -6 -2 -2 -8 3 -5 1 -10 -5 -10 -6 0 -9 -4 -5 -9 3 -6 -4 -15
-15 -21 -11 -6 -20 -15 -20 -21 0 -5 -12 -21 -26 -34 -15 -14 -23 -25 -19 -25
5 0 -5 -12 -21 -26 -16 -15 -22 -23 -14 -18 13 7 13 5 1 -9 -7 -9 -17 -14 -22
-11 -5 3 -9 -4 -9 -15 0 -11 -5 -23 -12 -27 -7 -5 -8 -3 -3 6 5 9 4 11 -3 6
-7 -4 -12 -14 -12 -22 0 -8 -4 -14 -10 -14 -5 0 -10 -4 -10 -10 0 -5 -10 -20
-22 -33 -41 -42 -73 -88 -70 -98 1 -6 -1 -8 -5 -6 -5 3 -14 -1 -21 -9 -7 -8
-10 -14 -7 -14 3 0 -8 -15 -24 -32 -16 -18 -82 -100 -147 -183 -65 -82 -145
-184 -178 -225 -267 -336 -376 -690 -286 -930 72 -191 275 -309 605 -351 84
-10 751 -12 2465 -6 l456 2 -4 120 c-4 150 -4 155 -15 155 -5 0 -6 7 -3 16 3
8 2 12 -4 9 -9 -6 -14 8 -11 28 1 5 -2 6 -6 4 -11 -7 -33 19 -25 29 4 4 2 4
-4 1 -6 -3 -21 4 -35 16 -14 12 -31 23 -39 25 -8 2 -17 8 -18 13 -2 5 -8 6
-13 3 -6 -3 -16 0 -24 6 -8 7 -15 9 -15 5 0 -4 -7 -2 -15 5 -8 7 -15 10 -15 6
0 -3 -12 -1 -27 5 -15 6 -46 13 -68 16 -22 3 -44 9 -49 13 -5 5 -15 6 -22 3
-8 -3 -14 0 -14 6 0 6 -7 8 -15 5 -8 -4 -23 -3 -33 1 -20 9 -27 11 -67 19 -53
10 -110 24 -110 26 0 3 -41 11 -57 11 -10 0 -18 4 -18 8 0 4 -7 8 -15 9 -8 1
-22 3 -30 4 -8 1 -15 6 -15 11 0 6 -3 7 -6 4 -4 -3 -16 -1 -28 5 -11 7 -24 11
-28 10 -5 -1 -8 2 -8 8 0 6 -3 9 -7 8 -13 -3 -91 41 -114 65 -12 12 -18 15
-14 7 6 -12 4 -11 -11 2 -61 53 -171 168 -166 172 3 3 0 6 -6 6 -7 0 -12 7
-12 16 0 8 -4 12 -10 9 -5 -3 -10 3 -10 15 0 12 -4 18 -10 15 -5 -3 -10 -1
-10 5 0 7 -9 24 -20 40 -11 15 -17 30 -13 34 3 3 1 6 -6 6 -7 0 -9 5 -6 10 3
6 2 10 -3 10 -8 0 -22 32 -21 48 0 1 -7 10 -16 18 -8 9 -13 20 -10 25 4 5 1 9
-5 9 -6 0 -8 5 -5 10 3 6 1 10 -5 10 -6 0 -8 5 -5 10 3 6 1 10 -4 10 -6 0 -10
3 -9 8 1 4 -3 17 -10 28 -6 12 -8 24 -5 28 3 3 1 6 -5 6 -7 0 -11 3 -10 8 1 4
-3 17 -10 30 -7 12 -10 22 -7 22 4 0 -1 7 -10 16 -9 9 -14 23 -11 31 3 8 2 12
-3 9 -11 -7 -23 22 -15 35 3 5 1 9 -3 9 -5 0 -17 19 -27 43 -9 23 -21 50 -27
59 -5 10 -9 25 -9 33 0 8 -4 15 -10 15 -5 0 -10 4 -10 9 0 5 -8 26 -17 47 -9
22 -17 41 -18 44 0 3 -8 19 -18 36 -9 17 -13 34 -10 38 4 3 2 6 -4 6 -6 0 -18
21 -28 48 -10 26 -22 52 -27 59 -5 7 -7 17 -3 23 3 5 2 10 -3 10 -10 0 -36 53
-32 66 1 4 -2 10 -7 13 -14 9 -82 169 -76 175 4 3 2 6 -3 6 -10 0 -34 56 -33
74 0 5 -3 12 -9 15 -12 8 -105 218 -105 237 0 8 -4 14 -8 14 -8 0 -20 31 -16
41 1 3 -4 13 -11 22 -8 9 -10 22 -6 28 4 7 3 9 -4 5 -6 -3 -18 13 -28 41 -10
27 -25 59 -33 73 -9 13 -14 24 -13 25 10 1 -23 55 -37 60 -8 3 -12 3 -9 -1z"/>
</g>
</svg>
