<?xml version="1.0" standalone="no"?>
<!DOCTYPE svg PUBLIC "-//W3C//DTD SVG 20010904//EN"
 "http://www.w3.org/TR/2001/REC-SVG-20010904/DTD/svg10.dtd">
<svg version="1.0" xmlns="http://www.w3.org/2000/svg"
 width="447.000000pt" height="447.000000pt" viewBox="0 0 447.000000 447.000000"
 preserveAspectRatio="xMidYMid meet">
<metadata>
Created by potrace 1.14, written by Peter Selinger 2001-2017
</metadata>
<g transform="translate(0.000000,447.000000) scale(0.100000,-0.100000)"
fill="#000000" stroke="none">
<path d="M2605 4107 c-370 -477 -607 -787 -624 -817 -8 -14 -37 -54 -66 -90
-28 -36 -54 -70 -58 -76 -4 -7 66 -173 154 -370 88 -198 278 -622 422 -944
143 -322 278 -613 299 -647 58 -92 161 -183 264 -235 84 -41 91 -43 178 -43
79 0 98 4 147 27 130 64 224 207 279 423 40 156 50 305 57 855 l6 525 -382
870 c-211 479 -386 873 -390 877 -3 3 -132 -156 -286 -355z"/>
<path d="M3135 4183 c56 -126 118 -264 137 -308 l35 -80 59 -1 c94 -1 152 -43
175 -127 15 -55 -3 -116 -47 -158 -19 -18 -34 -38 -34 -44 0 -9 289 -659 304
-684 3 -5 138 51 298 125 l293 133 3 343 c2 302 1 348 -14 388 -22 56 -95 135
-154 165 -42 21 -1144 475 -1153 475 -3 0 42 -102 98 -227z"/>
<path d="M1299 2408 c-156 -200 -294 -373 -306 -385 -64 -66 -623 -777 -688
-878 -73 -111 -120 -208 -162 -333 -46 -136 -57 -292 -28 -398 21 -78 76 -166
136 -218 98 -84 281 -151 479 -176 93 -11 2694 -15 2838 -3 l82 6 0 117 c0
105 -2 121 -25 166 -50 97 -103 120 -456 203 -277 64 -373 98 -477 169 -143
97 -244 216 -330 387 -35 70 -630 1393 -728 1619 -21 47 -41 86 -45 86 -4 0
-134 -163 -290 -362z"/>
</g>
</svg>
